<svg viewBox="0 0 600 600" xmlns="http://www.w3.org/2000/svg">
<defs>
<radialGradient id="bg" cx="50%" cy="36%" r="85%">
<stop offset="0%" stop-color="#222a34"/><stop offset="55%" stop-color="#141922"/><stop offset="100%" stop-color="#0a0b0d"/></radialGradient>
<linearGradient id="sb" x1="0" y1="0" x2="0" y2="1">
<stop offset="0%" stop-color="#EAF2F7"/><stop offset="100%" stop-color="#93a2af"/></linearGradient>
<linearGradient id="acc" x1="0" y1="0" x2="0" y2="1">
<stop offset="0%" stop-color="#bfe9f5"/><stop offset="100%" stop-color="#74acc0"/></linearGradient>
<filter id="glow" x="-60%" y="-60%" width="220%" height="220%">
<feGaussianBlur stdDeviation="4" result="b"/><feMerge><feMergeNode in="b"/><feMergeNode in="SourceGraphic"/></feMerge></filter>
<filter id="soft" x="-70%" y="-70%" width="240%" height="240%"><feGaussianBlur stdDeviation="22"/></filter>
</defs>
<rect width="600" height="600" fill="url(#bg)"/>
<g opacity="0.6"><circle cx="24" cy="24" r="1" fill="#2c3744"/><circle cx="24" cy="62" r="1" fill="#2c3744"/><circle cx="24" cy="100" r="1" fill="#2c3744"/><circle cx="24" cy="138" r="1" fill="#2c3744"/><circle cx="24" cy="176" r="1" fill="#2c3744"/><circle cx="24" cy="214" r="1" fill="#2c3744"/><circle cx="24" cy="252" r="1" fill="#2c3744"/><circle cx="24" cy="290" r="1" fill="#2c3744"/><circle cx="24" cy="328" r="1" fill="#2c3744"/><circle cx="24" cy="366" r="1" fill="#2c3744"/><circle cx="24" cy="404" r="1" fill="#2c3744"/><circle cx="24" cy="442" r="1" fill="#2c3744"/><circle cx="24" cy="480" r="1" fill="#2c3744"/><circle cx="24" cy="518" r="1" fill="#2c3744"/><circle cx="24" cy="556" r="1" fill="#2c3744"/><circle cx="24" cy="594" r="1" fill="#2c3744"/><circle cx="62" cy="24" r="1" fill="#2c3744"/><circle cx="62" cy="62" r="1" fill="#2c3744"/><circle cx="62" cy="100" r="1" fill="#2c3744"/><circle cx="62" cy="138" r="1" fill="#2c3744"/><circle cx="62" cy="176" r="1" fill="#2c3744"/><circle cx="62" cy="214" r="1" fill="#2c3744"/><circle cx="62" cy="252" r="1" fill="#2c3744"/><circle cx="62" cy="290" r="1" fill="#2c3744"/><circle cx="62" cy="328" r="1" fill="#2c3744"/><circle cx="62" cy="366" r="1" fill="#2c3744"/><circle cx="62" cy="404" r="1" fill="#2c3744"/><circle cx="62" cy="442" r="1" fill="#2c3744"/><circle cx="62" cy="480" r="1" fill="#2c3744"/><circle cx="62" cy="518" r="1" fill="#2c3744"/><circle cx="62" cy="556" r="1" fill="#2c3744"/><circle cx="62" cy="594" r="1" fill="#2c3744"/><circle cx="100" cy="24" r="1" fill="#2c3744"/><circle cx="100" cy="62" r="1" fill="#2c3744"/><circle cx="100" cy="100" r="1" fill="#2c3744"/><circle cx="100" cy="138" r="1" fill="#2c3744"/><circle cx="100" cy="176" r="1" fill="#2c3744"/><circle cx="100" cy="214" r="1" fill="#2c3744"/><circle cx="100" cy="252" r="1" fill="#2c3744"/><circle cx="100" cy="290" r="1" fill="#2c3744"/><circle cx="100" cy="328" r="1" fill="#2c3744"/><circle cx="100" cy="366" r="1" fill="#2c3744"/><circle cx="100" cy="404" r="1" fill="#2c3744"/><circle cx="100" cy="442" r="1" fill="#2c3744"/><circle cx="100" cy="480" r="1" fill="#2c3744"/><circle cx="100" cy="518" r="1" fill="#2c3744"/><circle cx="100" cy="556" r="1" fill="#2c3744"/><circle cx="100" cy="594" r="1" fill="#2c3744"/><circle cx="138" cy="24" r="1" fill="#2c3744"/><circle cx="138" cy="62" r="1" fill="#2c3744"/><circle cx="138" cy="100" r="1" fill="#2c3744"/><circle cx="138" cy="138" r="1" fill="#2c3744"/><circle cx="138" cy="176" r="1" fill="#2c3744"/><circle cx="138" cy="214" r="1" fill="#2c3744"/><circle cx="138" cy="252" r="1" fill="#2c3744"/><circle cx="138" cy="290" r="1" fill="#2c3744"/><circle cx="138" cy="328" r="1" fill="#2c3744"/><circle cx="138" cy="366" r="1" fill="#2c3744"/><circle cx="138" cy="404" r="1" fill="#2c3744"/><circle cx="138" cy="442" r="1" fill="#2c3744"/><circle cx="138" cy="480" r="1" fill="#2c3744"/><circle cx="138" cy="518" r="1" fill="#2c3744"/><circle cx="138" cy="556" r="1" fill="#2c3744"/><circle cx="138" cy="594" r="1" fill="#2c3744"/><circle cx="176" cy="24" r="1" fill="#2c3744"/><circle cx="176" cy="62" r="1" fill="#2c3744"/><circle cx="176" cy="100" r="1" fill="#2c3744"/><circle cx="176" cy="138" r="1" fill="#2c3744"/><circle cx="176" cy="176" r="1" fill="#2c3744"/><circle cx="176" cy="214" r="1" fill="#2c3744"/><circle cx="176" cy="252" r="1" fill="#2c3744"/><circle cx="176" cy="290" r="1" fill="#2c3744"/><circle cx="176" cy="328" r="1" fill="#2c3744"/><circle cx="176" cy="366" r="1" fill="#2c3744"/><circle cx="176" cy="404" r="1" fill="#2c3744"/><circle cx="176" cy="442" r="1" fill="#2c3744"/><circle cx="176" cy="480" r="1" fill="#2c3744"/><circle cx="176" cy="518" r="1" fill="#2c3744"/><circle cx="176" cy="556" r="1" fill="#2c3744"/><circle cx="176" cy="594" r="1" fill="#2c3744"/><circle cx="214" cy="24" r="1" fill="#2c3744"/><circle cx="214" cy="62" r="1" fill="#2c3744"/><circle cx="214" cy="100" r="1" fill="#2c3744"/><circle cx="214" cy="138" r="1" fill="#2c3744"/><circle cx="214" cy="176" r="1" fill="#2c3744"/><circle cx="214" cy="214" r="1" fill="#2c3744"/><circle cx="214" cy="252" r="1" fill="#2c3744"/><circle cx="214" cy="290" r="1" fill="#2c3744"/><circle cx="214" cy="328" r="1" fill="#2c3744"/><circle cx="214" cy="366" r="1" fill="#2c3744"/><circle cx="214" cy="404" r="1" fill="#2c3744"/><circle cx="214" cy="442" r="1" fill="#2c3744"/><circle cx="214" cy="480" r="1" fill="#2c3744"/><circle cx="214" cy="518" r="1" fill="#2c3744"/><circle cx="214" cy="556" r="1" fill="#2c3744"/><circle cx="214" cy="594" r="1" fill="#2c3744"/><circle cx="252" cy="24" r="1" fill="#2c3744"/><circle cx="252" cy="62" r="1" fill="#2c3744"/><circle cx="252" cy="100" r="1" fill="#2c3744"/><circle cx="252" cy="138" r="1" fill="#2c3744"/><circle cx="252" cy="176" r="1" fill="#2c3744"/><circle cx="252" cy="214" r="1" fill="#2c3744"/><circle cx="252" cy="252" r="1" fill="#2c3744"/><circle cx="252" cy="290" r="1" fill="#2c3744"/><circle cx="252" cy="328" r="1" fill="#2c3744"/><circle cx="252" cy="366" r="1" fill="#2c3744"/><circle cx="252" cy="404" r="1" fill="#2c3744"/><circle cx="252" cy="442" r="1" fill="#2c3744"/><circle cx="252" cy="480" r="1" fill="#2c3744"/><circle cx="252" cy="518" r="1" fill="#2c3744"/><circle cx="252" cy="556" r="1" fill="#2c3744"/><circle cx="252" cy="594" r="1" fill="#2c3744"/><circle cx="290" cy="24" r="1" fill="#2c3744"/><circle cx="290" cy="62" r="1" fill="#2c3744"/><circle cx="290" cy="100" r="1" fill="#2c3744"/><circle cx="290" cy="138" r="1" fill="#2c3744"/><circle cx="290" cy="176" r="1" fill="#2c3744"/><circle cx="290" cy="214" r="1" fill="#2c3744"/><circle cx="290" cy="252" r="1" fill="#2c3744"/><circle cx="290" cy="290" r="1" fill="#2c3744"/><circle cx="290" cy="328" r="1" fill="#2c3744"/><circle cx="290" cy="366" r="1" fill="#2c3744"/><circle cx="290" cy="404" r="1" fill="#2c3744"/><circle cx="290" cy="442" r="1" fill="#2c3744"/><circle cx="290" cy="480" r="1" fill="#2c3744"/><circle cx="290" cy="518" r="1" fill="#2c3744"/><circle cx="290" cy="556" r="1" fill="#2c3744"/><circle cx="290" cy="594" r="1" fill="#2c3744"/><circle cx="328" cy="24" r="1" fill="#2c3744"/><circle cx="328" cy="62" r="1" fill="#2c3744"/><circle cx="328" cy="100" r="1" fill="#2c3744"/><circle cx="328" cy="138" r="1" fill="#2c3744"/><circle cx="328" cy="176" r="1" fill="#2c3744"/><circle cx="328" cy="214" r="1" fill="#2c3744"/><circle cx="328" cy="252" r="1" fill="#2c3744"/><circle cx="328" cy="290" r="1" fill="#2c3744"/><circle cx="328" cy="328" r="1" fill="#2c3744"/><circle cx="328" cy="366" r="1" fill="#2c3744"/><circle cx="328" cy="404" r="1" fill="#2c3744"/><circle cx="328" cy="442" r="1" fill="#2c3744"/><circle cx="328" cy="480" r="1" fill="#2c3744"/><circle cx="328" cy="518" r="1" fill="#2c3744"/><circle cx="328" cy="556" r="1" fill="#2c3744"/><circle cx="328" cy="594" r="1" fill="#2c3744"/><circle cx="366" cy="24" r="1" fill="#2c3744"/><circle cx="366" cy="62" r="1" fill="#2c3744"/><circle cx="366" cy="100" r="1" fill="#2c3744"/><circle cx="366" cy="138" r="1" fill="#2c3744"/><circle cx="366" cy="176" r="1" fill="#2c3744"/><circle cx="366" cy="214" r="1" fill="#2c3744"/><circle cx="366" cy="252" r="1" fill="#2c3744"/><circle cx="366" cy="290" r="1" fill="#2c3744"/><circle cx="366" cy="328" r="1" fill="#2c3744"/><circle cx="366" cy="366" r="1" fill="#2c3744"/><circle cx="366" cy="404" r="1" fill="#2c3744"/><circle cx="366" cy="442" r="1" fill="#2c3744"/><circle cx="366" cy="480" r="1" fill="#2c3744"/><circle cx="366" cy="518" r="1" fill="#2c3744"/><circle cx="366" cy="556" r="1" fill="#2c3744"/><circle cx="366" cy="594" r="1" fill="#2c3744"/><circle cx="404" cy="24" r="1" fill="#2c3744"/><circle cx="404" cy="62" r="1" fill="#2c3744"/><circle cx="404" cy="100" r="1" fill="#2c3744"/><circle cx="404" cy="138" r="1" fill="#2c3744"/><circle cx="404" cy="176" r="1" fill="#2c3744"/><circle cx="404" cy="214" r="1" fill="#2c3744"/><circle cx="404" cy="252" r="1" fill="#2c3744"/><circle cx="404" cy="290" r="1" fill="#2c3744"/><circle cx="404" cy="328" r="1" fill="#2c3744"/><circle cx="404" cy="366" r="1" fill="#2c3744"/><circle cx="404" cy="404" r="1" fill="#2c3744"/><circle cx="404" cy="442" r="1" fill="#2c3744"/><circle cx="404" cy="480" r="1" fill="#2c3744"/><circle cx="404" cy="518" r="1" fill="#2c3744"/><circle cx="404" cy="556" r="1" fill="#2c3744"/><circle cx="404" cy="594" r="1" fill="#2c3744"/><circle cx="442" cy="24" r="1" fill="#2c3744"/><circle cx="442" cy="62" r="1" fill="#2c3744"/><circle cx="442" cy="100" r="1" fill="#2c3744"/><circle cx="442" cy="138" r="1" fill="#2c3744"/><circle cx="442" cy="176" r="1" fill="#2c3744"/><circle cx="442" cy="214" r="1" fill="#2c3744"/><circle cx="442" cy="252" r="1" fill="#2c3744"/><circle cx="442" cy="290" r="1" fill="#2c3744"/><circle cx="442" cy="328" r="1" fill="#2c3744"/><circle cx="442" cy="366" r="1" fill="#2c3744"/><circle cx="442" cy="404" r="1" fill="#2c3744"/><circle cx="442" cy="442" r="1" fill="#2c3744"/><circle cx="442" cy="480" r="1" fill="#2c3744"/><circle cx="442" cy="518" r="1" fill="#2c3744"/><circle cx="442" cy="556" r="1" fill="#2c3744"/><circle cx="442" cy="594" r="1" fill="#2c3744"/><circle cx="480" cy="24" r="1" fill="#2c3744"/><circle cx="480" cy="62" r="1" fill="#2c3744"/><circle cx="480" cy="100" r="1" fill="#2c3744"/><circle cx="480" cy="138" r="1" fill="#2c3744"/><circle cx="480" cy="176" r="1" fill="#2c3744"/><circle cx="480" cy="214" r="1" fill="#2c3744"/><circle cx="480" cy="252" r="1" fill="#2c3744"/><circle cx="480" cy="290" r="1" fill="#2c3744"/><circle cx="480" cy="328" r="1" fill="#2c3744"/><circle cx="480" cy="366" r="1" fill="#2c3744"/><circle cx="480" cy="404" r="1" fill="#2c3744"/><circle cx="480" cy="442" r="1" fill="#2c3744"/><circle cx="480" cy="480" r="1" fill="#2c3744"/><circle cx="480" cy="518" r="1" fill="#2c3744"/><circle cx="480" cy="556" r="1" fill="#2c3744"/><circle cx="480" cy="594" r="1" fill="#2c3744"/><circle cx="518" cy="24" r="1" fill="#2c3744"/><circle cx="518" cy="62" r="1" fill="#2c3744"/><circle cx="518" cy="100" r="1" fill="#2c3744"/><circle cx="518" cy="138" r="1" fill="#2c3744"/><circle cx="518" cy="176" r="1" fill="#2c3744"/><circle cx="518" cy="214" r="1" fill="#2c3744"/><circle cx="518" cy="252" r="1" fill="#2c3744"/><circle cx="518" cy="290" r="1" fill="#2c3744"/><circle cx="518" cy="328" r="1" fill="#2c3744"/><circle cx="518" cy="366" r="1" fill="#2c3744"/><circle cx="518" cy="404" r="1" fill="#2c3744"/><circle cx="518" cy="442" r="1" fill="#2c3744"/><circle cx="518" cy="480" r="1" fill="#2c3744"/><circle cx="518" cy="518" r="1" fill="#2c3744"/><circle cx="518" cy="556" r="1" fill="#2c3744"/><circle cx="518" cy="594" r="1" fill="#2c3744"/><circle cx="556" cy="24" r="1" fill="#2c3744"/><circle cx="556" cy="62" r="1" fill="#2c3744"/><circle cx="556" cy="100" r="1" fill="#2c3744"/><circle cx="556" cy="138" r="1" fill="#2c3744"/><circle cx="556" cy="176" r="1" fill="#2c3744"/><circle cx="556" cy="214" r="1" fill="#2c3744"/><circle cx="556" cy="252" r="1" fill="#2c3744"/><circle cx="556" cy="290" r="1" fill="#2c3744"/><circle cx="556" cy="328" r="1" fill="#2c3744"/><circle cx="556" cy="366" r="1" fill="#2c3744"/><circle cx="556" cy="404" r="1" fill="#2c3744"/><circle cx="556" cy="442" r="1" fill="#2c3744"/><circle cx="556" cy="480" r="1" fill="#2c3744"/><circle cx="556" cy="518" r="1" fill="#2c3744"/><circle cx="556" cy="556" r="1" fill="#2c3744"/><circle cx="556" cy="594" r="1" fill="#2c3744"/><circle cx="594" cy="24" r="1" fill="#2c3744"/><circle cx="594" cy="62" r="1" fill="#2c3744"/><circle cx="594" cy="100" r="1" fill="#2c3744"/><circle cx="594" cy="138" r="1" fill="#2c3744"/><circle cx="594" cy="176" r="1" fill="#2c3744"/><circle cx="594" cy="214" r="1" fill="#2c3744"/><circle cx="594" cy="252" r="1" fill="#2c3744"/><circle cx="594" cy="290" r="1" fill="#2c3744"/><circle cx="594" cy="328" r="1" fill="#2c3744"/><circle cx="594" cy="366" r="1" fill="#2c3744"/><circle cx="594" cy="404" r="1" fill="#2c3744"/><circle cx="594" cy="442" r="1" fill="#2c3744"/><circle cx="594" cy="480" r="1" fill="#2c3744"/><circle cx="594" cy="518" r="1" fill="#2c3744"/><circle cx="594" cy="556" r="1" fill="#2c3744"/><circle cx="594" cy="594" r="1" fill="#2c3744"/></g><circle cx="300" cy="325" r="150" fill="#4f8aa3" opacity="0.22" filter="url(#soft)"/><g filter="url(#glow)"><line x1="300" y1="72" x2="300" y2="122" stroke="#bfe9f5" stroke-width="3.5"/><path d="M300 132 l-13 -17 h26 z" fill="#bfe9f5"/></g><polygon points="228.0,155.0 228.0,189.0 228.0,223.0 228.0,257.0 228.0,291.0 202.3,325.0 232.5,343.0 253.5,361.0 222.0,379.0 202.9,397.0 235.5,415.0 252.7,433.0 219.1,451.0 203.9,469.0 396.1,469.0 380.9,451.0 347.3,433.0 364.5,415.0 397.1,397.0 378.0,379.0 346.5,361.0 367.5,343.0 397.7,325.0 372.0,291.0 372.0,257.0 372.0,223.0 372.0,189.0 372.0,155.0" fill="#9fb6c4" opacity="0.06"/><polyline points="228.0,155.0 228.0,189.0 228.0,223.0 228.0,257.0 228.0,291.0 202.3,325.0 232.5,343.0 253.5,361.0 222.0,379.0 202.9,397.0 235.5,415.0 252.7,433.0 219.1,451.0 203.9,469.0" fill="none" stroke="url(#sb)" stroke-width="2.4" opacity="0.9"/><polyline points="372.0,155.0 372.0,189.0 372.0,223.0 372.0,257.0 372.0,291.0 397.7,325.0 367.5,343.0 346.5,361.0 378.0,379.0 397.1,397.0 364.5,415.0 347.3,433.0 380.9,451.0 396.1,469.0" fill="none" stroke="url(#sb)" stroke-width="2.4" opacity="0.9"/><ellipse cx="300" cy="155.0" rx="72.0" ry="18" fill="none" stroke="url(#sb)" stroke-width="2.1" opacity="0.95"/><ellipse cx="300" cy="189.0" rx="72.0" ry="18" fill="none" stroke="url(#sb)" stroke-width="2.1" opacity="0.91"/><ellipse cx="300" cy="223.0" rx="72.0" ry="18" fill="none" stroke="url(#sb)" stroke-width="2.1" opacity="0.86"/><ellipse cx="300" cy="257.0" rx="72.0" ry="18" fill="none" stroke="url(#sb)" stroke-width="2.1" opacity="0.82"/><ellipse cx="300" cy="291.0" rx="72.0" ry="18" fill="none" stroke="url(#sb)" stroke-width="2.1" opacity="0.78"/><ellipse cx="300" cy="325.0" rx="97.7" ry="14" fill="none" stroke="url(#acc)" stroke-width="2.1" opacity="0.73"/><ellipse cx="300" cy="343.0" rx="67.5" ry="14" fill="none" stroke="url(#acc)" stroke-width="2.1" opacity="0.71"/><ellipse cx="300" cy="361.0" rx="46.5" ry="14" fill="none" stroke="url(#acc)" stroke-width="2.1" opacity="0.69"/><ellipse cx="300" cy="379.0" rx="78.0" ry="14" fill="none" stroke="url(#acc)" stroke-width="2.1" opacity="0.67"/><ellipse cx="300" cy="397.0" rx="97.1" ry="14" fill="none" stroke="url(#acc)" stroke-width="2.1" opacity="0.64"/><ellipse cx="300" cy="415.0" rx="64.5" ry="14" fill="none" stroke="url(#acc)" stroke-width="2.1" opacity="0.62"/><ellipse cx="300" cy="433.0" rx="47.3" ry="14" fill="none" stroke="url(#acc)" stroke-width="2.1" opacity="0.6"/><ellipse cx="300" cy="451.0" rx="80.9" ry="14" fill="none" stroke="url(#acc)" stroke-width="2.1" opacity="0.57"/><ellipse cx="300" cy="469.0" rx="96.1" ry="14" fill="none" stroke="url(#acc)" stroke-width="2.1" opacity="0.55"/><line x1="185" y1="477" x2="415" y2="477" stroke="url(#sb)" stroke-width="3.5" opacity="0.8"/></svg>