<svg viewBox="0 0 600 600" xmlns="http://www.w3.org/2000/svg">
<defs>
<radialGradient id="bg" cx="50%" cy="36%" r="85%">
<stop offset="0%" stop-color="#222a34"/><stop offset="55%" stop-color="#141922"/><stop offset="100%" stop-color="#0a0b0d"/></radialGradient>
<linearGradient id="sb" x1="0" y1="0" x2="0" y2="1">
<stop offset="0%" stop-color="#EAF2F7"/><stop offset="100%" stop-color="#93a2af"/></linearGradient>
<linearGradient id="acc" x1="0" y1="0" x2="0" y2="1">
<stop offset="0%" stop-color="#bfe9f5"/><stop offset="100%" stop-color="#74acc0"/></linearGradient>
<filter id="glow" x="-60%" y="-60%" width="220%" height="220%">
<feGaussianBlur stdDeviation="4" result="b"/><feMerge><feMergeNode in="b"/><feMergeNode in="SourceGraphic"/></feMerge></filter>
<filter id="soft" x="-70%" y="-70%" width="240%" height="240%"><feGaussianBlur stdDeviation="22"/></filter>
</defs>
<rect width="600" height="600" fill="url(#bg)"/>
<g opacity="0.6"><circle cx="24" cy="24" r="1" fill="#2c3744"/><circle cx="24" cy="62" r="1" fill="#2c3744"/><circle cx="24" cy="100" r="1" fill="#2c3744"/><circle cx="24" cy="138" r="1" fill="#2c3744"/><circle cx="24" cy="176" r="1" fill="#2c3744"/><circle cx="24" cy="214" r="1" fill="#2c3744"/><circle cx="24" cy="252" r="1" fill="#2c3744"/><circle cx="24" cy="290" r="1" fill="#2c3744"/><circle cx="24" cy="328" r="1" fill="#2c3744"/><circle cx="24" cy="366" r="1" fill="#2c3744"/><circle cx="24" cy="404" r="1" fill="#2c3744"/><circle cx="24" cy="442" r="1" fill="#2c3744"/><circle cx="24" cy="480" r="1" fill="#2c3744"/><circle cx="24" cy="518" r="1" fill="#2c3744"/><circle cx="24" cy="556" r="1" fill="#2c3744"/><circle cx="24" cy="594" r="1" fill="#2c3744"/><circle cx="62" cy="24" r="1" fill="#2c3744"/><circle cx="62" cy="62" r="1" fill="#2c3744"/><circle cx="62" cy="100" r="1" fill="#2c3744"/><circle cx="62" cy="138" r="1" fill="#2c3744"/><circle cx="62" cy="176" r="1" fill="#2c3744"/><circle cx="62" cy="214" r="1" fill="#2c3744"/><circle cx="62" cy="252" r="1" fill="#2c3744"/><circle cx="62" cy="290" r="1" fill="#2c3744"/><circle cx="62" cy="328" r="1" fill="#2c3744"/><circle cx="62" cy="366" r="1" fill="#2c3744"/><circle cx="62" cy="404" r="1" fill="#2c3744"/><circle cx="62" cy="442" r="1" fill="#2c3744"/><circle cx="62" cy="480" r="1" fill="#2c3744"/><circle cx="62" cy="518" r="1" fill="#2c3744"/><circle cx="62" cy="556" r="1" fill="#2c3744"/><circle cx="62" cy="594" r="1" fill="#2c3744"/><circle cx="100" cy="24" r="1" fill="#2c3744"/><circle cx="100" cy="62" r="1" fill="#2c3744"/><circle cx="100" cy="100" r="1" fill="#2c3744"/><circle cx="100" cy="138" r="1" fill="#2c3744"/><circle cx="100" cy="176" r="1" fill="#2c3744"/><circle cx="100" cy="214" r="1" fill="#2c3744"/><circle cx="100" cy="252" r="1" fill="#2c3744"/><circle cx="100" cy="290" r="1" fill="#2c3744"/><circle cx="100" cy="328" r="1" fill="#2c3744"/><circle cx="100" cy="366" r="1" fill="#2c3744"/><circle cx="100" cy="404" r="1" fill="#2c3744"/><circle cx="100" cy="442" r="1" fill="#2c3744"/><circle cx="100" cy="480" r="1" fill="#2c3744"/><circle cx="100" cy="518" r="1" fill="#2c3744"/><circle cx="100" cy="556" r="1" fill="#2c3744"/><circle cx="100" cy="594" r="1" fill="#2c3744"/><circle cx="138" cy="24" r="1" fill="#2c3744"/><circle cx="138" cy="62" r="1" fill="#2c3744"/><circle cx="138" cy="100" r="1" fill="#2c3744"/><circle cx="138" cy="138" r="1" fill="#2c3744"/><circle cx="138" cy="176" r="1" fill="#2c3744"/><circle cx="138" cy="214" r="1" fill="#2c3744"/><circle cx="138" cy="252" r="1" fill="#2c3744"/><circle cx="138" cy="290" r="1" fill="#2c3744"/><circle cx="138" cy="328" r="1" fill="#2c3744"/><circle cx="138" cy="366" r="1" fill="#2c3744"/><circle cx="138" cy="404" r="1" fill="#2c3744"/><circle cx="138" cy="442" r="1" fill="#2c3744"/><circle cx="138" cy="480" r="1" fill="#2c3744"/><circle cx="138" cy="518" r="1" fill="#2c3744"/><circle cx="138" cy="556" r="1" fill="#2c3744"/><circle cx="138" cy="594" r="1" fill="#2c3744"/><circle cx="176" cy="24" r="1" fill="#2c3744"/><circle cx="176" cy="62" r="1" fill="#2c3744"/><circle cx="176" cy="100" r="1" fill="#2c3744"/><circle cx="176" cy="138" r="1" fill="#2c3744"/><circle cx="176" cy="176" r="1" fill="#2c3744"/><circle cx="176" cy="214" r="1" fill="#2c3744"/><circle cx="176" cy="252" r="1" fill="#2c3744"/><circle cx="176" cy="290" r="1" fill="#2c3744"/><circle cx="176" cy="328" r="1" fill="#2c3744"/><circle cx="176" cy="366" r="1" fill="#2c3744"/><circle cx="176" cy="404" r="1" fill="#2c3744"/><circle cx="176" cy="442" r="1" fill="#2c3744"/><circle cx="176" cy="480" r="1" fill="#2c3744"/><circle cx="176" cy="518" r="1" fill="#2c3744"/><circle cx="176" cy="556" r="1" fill="#2c3744"/><circle cx="176" cy="594" r="1" fill="#2c3744"/><circle cx="214" cy="24" r="1" fill="#2c3744"/><circle cx="214" cy="62" r="1" fill="#2c3744"/><circle cx="214" cy="100" r="1" fill="#2c3744"/><circle cx="214" cy="138" r="1" fill="#2c3744"/><circle cx="214" cy="176" r="1" fill="#2c3744"/><circle cx="214" cy="214" r="1" fill="#2c3744"/><circle cx="214" cy="252" r="1" fill="#2c3744"/><circle cx="214" cy="290" r="1" fill="#2c3744"/><circle cx="214" cy="328" r="1" fill="#2c3744"/><circle cx="214" cy="366" r="1" fill="#2c3744"/><circle cx="214" cy="404" r="1" fill="#2c3744"/><circle cx="214" cy="442" r="1" fill="#2c3744"/><circle cx="214" cy="480" r="1" fill="#2c3744"/><circle cx="214" cy="518" r="1" fill="#2c3744"/><circle cx="214" cy="556" r="1" fill="#2c3744"/><circle cx="214" cy="594" r="1" fill="#2c3744"/><circle cx="252" cy="24" r="1" fill="#2c3744"/><circle cx="252" cy="62" r="1" fill="#2c3744"/><circle cx="252" cy="100" r="1" fill="#2c3744"/><circle cx="252" cy="138" r="1" fill="#2c3744"/><circle cx="252" cy="176" r="1" fill="#2c3744"/><circle cx="252" cy="214" r="1" fill="#2c3744"/><circle cx="252" cy="252" r="1" fill="#2c3744"/><circle cx="252" cy="290" r="1" fill="#2c3744"/><circle cx="252" cy="328" r="1" fill="#2c3744"/><circle cx="252" cy="366" r="1" fill="#2c3744"/><circle cx="252" cy="404" r="1" fill="#2c3744"/><circle cx="252" cy="442" r="1" fill="#2c3744"/><circle cx="252" cy="480" r="1" fill="#2c3744"/><circle cx="252" cy="518" r="1" fill="#2c3744"/><circle cx="252" cy="556" r="1" fill="#2c3744"/><circle cx="252" cy="594" r="1" fill="#2c3744"/><circle cx="290" cy="24" r="1" fill="#2c3744"/><circle cx="290" cy="62" r="1" fill="#2c3744"/><circle cx="290" cy="100" r="1" fill="#2c3744"/><circle cx="290" cy="138" r="1" fill="#2c3744"/><circle cx="290" cy="176" r="1" fill="#2c3744"/><circle cx="290" cy="214" r="1" fill="#2c3744"/><circle cx="290" cy="252" r="1" fill="#2c3744"/><circle cx="290" cy="290" r="1" fill="#2c3744"/><circle cx="290" cy="328" r="1" fill="#2c3744"/><circle cx="290" cy="366" r="1" fill="#2c3744"/><circle cx="290" cy="404" r="1" fill="#2c3744"/><circle cx="290" cy="442" r="1" fill="#2c3744"/><circle cx="290" cy="480" r="1" fill="#2c3744"/><circle cx="290" cy="518" r="1" fill="#2c3744"/><circle cx="290" cy="556" r="1" fill="#2c3744"/><circle cx="290" cy="594" r="1" fill="#2c3744"/><circle cx="328" cy="24" r="1" fill="#2c3744"/><circle cx="328" cy="62" r="1" fill="#2c3744"/><circle cx="328" cy="100" r="1" fill="#2c3744"/><circle cx="328" cy="138" r="1" fill="#2c3744"/><circle cx="328" cy="176" r="1" fill="#2c3744"/><circle cx="328" cy="214" r="1" fill="#2c3744"/><circle cx="328" cy="252" r="1" fill="#2c3744"/><circle cx="328" cy="290" r="1" fill="#2c3744"/><circle cx="328" cy="328" r="1" fill="#2c3744"/><circle cx="328" cy="366" r="1" fill="#2c3744"/><circle cx="328" cy="404" r="1" fill="#2c3744"/><circle cx="328" cy="442" r="1" fill="#2c3744"/><circle cx="328" cy="480" r="1" fill="#2c3744"/><circle cx="328" cy="518" r="1" fill="#2c3744"/><circle cx="328" cy="556" r="1" fill="#2c3744"/><circle cx="328" cy="594" r="1" fill="#2c3744"/><circle cx="366" cy="24" r="1" fill="#2c3744"/><circle cx="366" cy="62" r="1" fill="#2c3744"/><circle cx="366" cy="100" r="1" fill="#2c3744"/><circle cx="366" cy="138" r="1" fill="#2c3744"/><circle cx="366" cy="176" r="1" fill="#2c3744"/><circle cx="366" cy="214" r="1" fill="#2c3744"/><circle cx="366" cy="252" r="1" fill="#2c3744"/><circle cx="366" cy="290" r="1" fill="#2c3744"/><circle cx="366" cy="328" r="1" fill="#2c3744"/><circle cx="366" cy="366" r="1" fill="#2c3744"/><circle cx="366" cy="404" r="1" fill="#2c3744"/><circle cx="366" cy="442" r="1" fill="#2c3744"/><circle cx="366" cy="480" r="1" fill="#2c3744"/><circle cx="366" cy="518" r="1" fill="#2c3744"/><circle cx="366" cy="556" r="1" fill="#2c3744"/><circle cx="366" cy="594" r="1" fill="#2c3744"/><circle cx="404" cy="24" r="1" fill="#2c3744"/><circle cx="404" cy="62" r="1" fill="#2c3744"/><circle cx="404" cy="100" r="1" fill="#2c3744"/><circle cx="404" cy="138" r="1" fill="#2c3744"/><circle cx="404" cy="176" r="1" fill="#2c3744"/><circle cx="404" cy="214" r="1" fill="#2c3744"/><circle cx="404" cy="252" r="1" fill="#2c3744"/><circle cx="404" cy="290" r="1" fill="#2c3744"/><circle cx="404" cy="328" r="1" fill="#2c3744"/><circle cx="404" cy="366" r="1" fill="#2c3744"/><circle cx="404" cy="404" r="1" fill="#2c3744"/><circle cx="404" cy="442" r="1" fill="#2c3744"/><circle cx="404" cy="480" r="1" fill="#2c3744"/><circle cx="404" cy="518" r="1" fill="#2c3744"/><circle cx="404" cy="556" r="1" fill="#2c3744"/><circle cx="404" cy="594" r="1" fill="#2c3744"/><circle cx="442" cy="24" r="1" fill="#2c3744"/><circle cx="442" cy="62" r="1" fill="#2c3744"/><circle cx="442" cy="100" r="1" fill="#2c3744"/><circle cx="442" cy="138" r="1" fill="#2c3744"/><circle cx="442" cy="176" r="1" fill="#2c3744"/><circle cx="442" cy="214" r="1" fill="#2c3744"/><circle cx="442" cy="252" r="1" fill="#2c3744"/><circle cx="442" cy="290" r="1" fill="#2c3744"/><circle cx="442" cy="328" r="1" fill="#2c3744"/><circle cx="442" cy="366" r="1" fill="#2c3744"/><circle cx="442" cy="404" r="1" fill="#2c3744"/><circle cx="442" cy="442" r="1" fill="#2c3744"/><circle cx="442" cy="480" r="1" fill="#2c3744"/><circle cx="442" cy="518" r="1" fill="#2c3744"/><circle cx="442" cy="556" r="1" fill="#2c3744"/><circle cx="442" cy="594" r="1" fill="#2c3744"/><circle cx="480" cy="24" r="1" fill="#2c3744"/><circle cx="480" cy="62" r="1" fill="#2c3744"/><circle cx="480" cy="100" r="1" fill="#2c3744"/><circle cx="480" cy="138" r="1" fill="#2c3744"/><circle cx="480" cy="176" r="1" fill="#2c3744"/><circle cx="480" cy="214" r="1" fill="#2c3744"/><circle cx="480" cy="252" r="1" fill="#2c3744"/><circle cx="480" cy="290" r="1" fill="#2c3744"/><circle cx="480" cy="328" r="1" fill="#2c3744"/><circle cx="480" cy="366" r="1" fill="#2c3744"/><circle cx="480" cy="404" r="1" fill="#2c3744"/><circle cx="480" cy="442" r="1" fill="#2c3744"/><circle cx="480" cy="480" r="1" fill="#2c3744"/><circle cx="480" cy="518" r="1" fill="#2c3744"/><circle cx="480" cy="556" r="1" fill="#2c3744"/><circle cx="480" cy="594" r="1" fill="#2c3744"/><circle cx="518" cy="24" r="1" fill="#2c3744"/><circle cx="518" cy="62" r="1" fill="#2c3744"/><circle cx="518" cy="100" r="1" fill="#2c3744"/><circle cx="518" cy="138" r="1" fill="#2c3744"/><circle cx="518" cy="176" r="1" fill="#2c3744"/><circle cx="518" cy="214" r="1" fill="#2c3744"/><circle cx="518" cy="252" r="1" fill="#2c3744"/><circle cx="518" cy="290" r="1" fill="#2c3744"/><circle cx="518" cy="328" r="1" fill="#2c3744"/><circle cx="518" cy="366" r="1" fill="#2c3744"/><circle cx="518" cy="404" r="1" fill="#2c3744"/><circle cx="518" cy="442" r="1" fill="#2c3744"/><circle cx="518" cy="480" r="1" fill="#2c3744"/><circle cx="518" cy="518" r="1" fill="#2c3744"/><circle cx="518" cy="556" r="1" fill="#2c3744"/><circle cx="518" cy="594" r="1" fill="#2c3744"/><circle cx="556" cy="24" r="1" fill="#2c3744"/><circle cx="556" cy="62" r="1" fill="#2c3744"/><circle cx="556" cy="100" r="1" fill="#2c3744"/><circle cx="556" cy="138" r="1" fill="#2c3744"/><circle cx="556" cy="176" r="1" fill="#2c3744"/><circle cx="556" cy="214" r="1" fill="#2c3744"/><circle cx="556" cy="252" r="1" fill="#2c3744"/><circle cx="556" cy="290" r="1" fill="#2c3744"/><circle cx="556" cy="328" r="1" fill="#2c3744"/><circle cx="556" cy="366" r="1" fill="#2c3744"/><circle cx="556" cy="404" r="1" fill="#2c3744"/><circle cx="556" cy="442" r="1" fill="#2c3744"/><circle cx="556" cy="480" r="1" fill="#2c3744"/><circle cx="556" cy="518" r="1" fill="#2c3744"/><circle cx="556" cy="556" r="1" fill="#2c3744"/><circle cx="556" cy="594" r="1" fill="#2c3744"/><circle cx="594" cy="24" r="1" fill="#2c3744"/><circle cx="594" cy="62" r="1" fill="#2c3744"/><circle cx="594" cy="100" r="1" fill="#2c3744"/><circle cx="594" cy="138" r="1" fill="#2c3744"/><circle cx="594" cy="176" r="1" fill="#2c3744"/><circle cx="594" cy="214" r="1" fill="#2c3744"/><circle cx="594" cy="252" r="1" fill="#2c3744"/><circle cx="594" cy="290" r="1" fill="#2c3744"/><circle cx="594" cy="328" r="1" fill="#2c3744"/><circle cx="594" cy="366" r="1" fill="#2c3744"/><circle cx="594" cy="404" r="1" fill="#2c3744"/><circle cx="594" cy="442" r="1" fill="#2c3744"/><circle cx="594" cy="480" r="1" fill="#2c3744"/><circle cx="594" cy="518" r="1" fill="#2c3744"/><circle cx="594" cy="556" r="1" fill="#2c3744"/><circle cx="594" cy="594" r="1" fill="#2c3744"/></g><circle cx="300" cy="305" r="150" fill="#4f8aa3" opacity="0.22" filter="url(#soft)"/><path d="M180 175 A120 34 0 0 0 420 175 L420 430 A120 34 0 0 1 180 430 Z" fill="#9fb6c4" opacity="0.07"/><path d="M197.1 187.75 L205.64285714285714 196.2 L197.1 204.75 L188.64285714285714 196.2 Z" fill="none" stroke="url(#sb)" stroke-width="1.5" opacity="0.48"/><path d="M197.1 230.25 L205.64285714285714 238.8 L197.1 247.25 L188.64285714285714 238.8 Z" fill="none" stroke="url(#sb)" stroke-width="1.5" opacity="0.48"/><path d="M197.1 272.75 L205.64285714285714 281.2 L197.1 289.75 L188.64285714285714 281.2 Z" fill="none" stroke="url(#sb)" stroke-width="1.5" opacity="0.48"/><path d="M197.1 315.25 L205.64285714285714 323.8 L197.1 332.25 L188.64285714285714 323.8 Z" fill="none" stroke="url(#sb)" stroke-width="1.5" opacity="0.48"/><path d="M197.1 357.75 L205.64285714285714 366.2 L197.1 374.75 L188.64285714285714 366.2 Z" fill="none" stroke="url(#sb)" stroke-width="1.5" opacity="0.48"/><path d="M197.1 400.25 L205.64285714285714 408.8 L197.1 417.25 L188.64285714285714 408.8 Z" fill="none" stroke="url(#sb)" stroke-width="1.5" opacity="0.48"/><path d="M231.4 187.75 L239.92857142857144 196.2 L231.4 204.75 L222.92857142857144 196.2 Z" fill="none" stroke="url(#sb)" stroke-width="1.5" opacity="0.64"/><path d="M231.4 230.25 L239.92857142857144 238.8 L231.4 247.25 L222.92857142857144 238.8 Z" fill="none" stroke="url(#sb)" stroke-width="1.5" opacity="0.64"/><path d="M231.4 272.75 L239.92857142857144 281.2 L231.4 289.75 L222.92857142857144 281.2 Z" fill="none" stroke="url(#sb)" stroke-width="1.5" opacity="0.64"/><path d="M231.4 315.25 L239.92857142857144 323.8 L231.4 332.25 L222.92857142857144 323.8 Z" fill="none" stroke="url(#sb)" stroke-width="1.5" opacity="0.64"/><path d="M231.4 357.75 L239.92857142857144 366.2 L231.4 374.75 L222.92857142857144 366.2 Z" fill="none" stroke="url(#sb)" stroke-width="1.5" opacity="0.64"/><path d="M231.4 400.25 L239.92857142857144 408.8 L231.4 417.25 L222.92857142857144 408.8 Z" fill="none" stroke="url(#sb)" stroke-width="1.5" opacity="0.64"/><path d="M265.7 187.75 L274.2142857142857 196.2 L265.7 204.75 L257.2142857142857 196.2 Z" fill="none" stroke="url(#sb)" stroke-width="1.5" opacity="0.79"/><path d="M265.7 230.25 L274.2142857142857 238.8 L265.7 247.25 L257.2142857142857 238.8 Z" fill="none" stroke="url(#sb)" stroke-width="1.5" opacity="0.79"/><path d="M265.7 272.75 L274.2142857142857 281.2 L265.7 289.75 L257.2142857142857 281.2 Z" fill="none" stroke="url(#sb)" stroke-width="1.5" opacity="0.79"/><path d="M265.7 315.25 L274.2142857142857 323.8 L265.7 332.25 L257.2142857142857 323.8 Z" fill="none" stroke="url(#sb)" stroke-width="1.5" opacity="0.79"/><path d="M265.7 357.75 L274.2142857142857 366.2 L265.7 374.75 L257.2142857142857 366.2 Z" fill="none" stroke="url(#sb)" stroke-width="1.5" opacity="0.79"/><path d="M265.7 400.25 L274.2142857142857 408.8 L265.7 417.25 L257.2142857142857 408.8 Z" fill="none" stroke="url(#sb)" stroke-width="1.5" opacity="0.79"/><path d="M300.0 187.75 L308.5 196.2 L300.0 204.75 L291.5 196.2 Z" fill="none" stroke="url(#sb)" stroke-width="1.5" opacity="0.95"/><path d="M300.0 230.25 L308.5 238.8 L300.0 247.25 L291.5 238.8 Z" fill="none" stroke="url(#sb)" stroke-width="1.5" opacity="0.95"/><path d="M300.0 272.75 L308.5 281.2 L300.0 289.75 L291.5 281.2 Z" fill="none" stroke="url(#sb)" stroke-width="1.5" opacity="0.95"/><path d="M300.0 315.25 L308.5 323.8 L300.0 332.25 L291.5 323.8 Z" fill="none" stroke="url(#sb)" stroke-width="1.5" opacity="0.95"/><path d="M300.0 357.75 L308.5 366.2 L300.0 374.75 L291.5 366.2 Z" fill="none" stroke="url(#sb)" stroke-width="1.5" opacity="0.95"/><path d="M300.0 400.25 L308.5 408.8 L300.0 417.25 L291.5 408.8 Z" fill="none" stroke="url(#sb)" stroke-width="1.5" opacity="0.95"/><path d="M334.3 187.75 L342.7857142857143 196.2 L334.3 204.75 L325.7857142857143 196.2 Z" fill="none" stroke="url(#sb)" stroke-width="1.5" opacity="0.79"/><path d="M334.3 230.25 L342.7857142857143 238.8 L334.3 247.25 L325.7857142857143 238.8 Z" fill="none" stroke="url(#sb)" stroke-width="1.5" opacity="0.79"/><path d="M334.3 272.75 L342.7857142857143 281.2 L334.3 289.75 L325.7857142857143 281.2 Z" fill="none" stroke="url(#sb)" stroke-width="1.5" opacity="0.79"/><path d="M334.3 315.25 L342.7857142857143 323.8 L334.3 332.25 L325.7857142857143 323.8 Z" fill="none" stroke="url(#sb)" stroke-width="1.5" opacity="0.79"/><path d="M334.3 357.75 L342.7857142857143 366.2 L334.3 374.75 L325.7857142857143 366.2 Z" fill="none" stroke="url(#sb)" stroke-width="1.5" opacity="0.79"/><path d="M334.3 400.25 L342.7857142857143 408.8 L334.3 417.25 L325.7857142857143 408.8 Z" fill="none" stroke="url(#sb)" stroke-width="1.5" opacity="0.79"/><path d="M368.6 187.75 L377.07142857142856 196.2 L368.6 204.75 L360.07142857142856 196.2 Z" fill="none" stroke="url(#sb)" stroke-width="1.5" opacity="0.64"/><path d="M368.6 230.25 L377.07142857142856 238.8 L368.6 247.25 L360.07142857142856 238.8 Z" fill="none" stroke="url(#sb)" stroke-width="1.5" opacity="0.64"/><path d="M368.6 272.75 L377.07142857142856 281.2 L368.6 289.75 L360.07142857142856 281.2 Z" fill="none" stroke="url(#sb)" stroke-width="1.5" opacity="0.64"/><path d="M368.6 315.25 L377.07142857142856 323.8 L368.6 332.25 L360.07142857142856 323.8 Z" fill="none" stroke="url(#sb)" stroke-width="1.5" opacity="0.64"/><path d="M368.6 357.75 L377.07142857142856 366.2 L368.6 374.75 L360.07142857142856 366.2 Z" fill="none" stroke="url(#sb)" stroke-width="1.5" opacity="0.64"/><path d="M368.6 400.25 L377.07142857142856 408.8 L368.6 417.25 L360.07142857142856 408.8 Z" fill="none" stroke="url(#sb)" stroke-width="1.5" opacity="0.64"/><path d="M402.9 187.75 L411.3571428571429 196.2 L402.9 204.75 L394.3571428571429 196.2 Z" fill="none" stroke="url(#sb)" stroke-width="1.5" opacity="0.48"/><path d="M402.9 230.25 L411.3571428571429 238.8 L402.9 247.25 L394.3571428571429 238.8 Z" fill="none" stroke="url(#sb)" stroke-width="1.5" opacity="0.48"/><path d="M402.9 272.75 L411.3571428571429 281.2 L402.9 289.75 L394.3571428571429 281.2 Z" fill="none" stroke="url(#sb)" stroke-width="1.5" opacity="0.48"/><path d="M402.9 315.25 L411.3571428571429 323.8 L402.9 332.25 L394.3571428571429 323.8 Z" fill="none" stroke="url(#sb)" stroke-width="1.5" opacity="0.48"/><path d="M402.9 357.75 L411.3571428571429 366.2 L402.9 374.75 L394.3571428571429 366.2 Z" fill="none" stroke="url(#sb)" stroke-width="1.5" opacity="0.48"/><path d="M402.9 400.25 L411.3571428571429 408.8 L402.9 417.25 L394.3571428571429 408.8 Z" fill="none" stroke="url(#sb)" stroke-width="1.5" opacity="0.48"/><line x1="180" y1="175" x2="180" y2="430" stroke="url(#sb)" stroke-width="2.6"/><line x1="420" y1="175" x2="420" y2="430" stroke="url(#sb)" stroke-width="2.6"/><ellipse cx="300" cy="430" rx="120" ry="34" fill="none" stroke="url(#sb)" stroke-width="2.6" opacity="0.8"/><g filter="url(#glow)"><ellipse cx="300" cy="175" rx="120" ry="34" fill="#10151b" stroke="url(#acc)" stroke-width="2.8"/></g></svg>