<svg viewBox="0 0 600 600" xmlns="http://www.w3.org/2000/svg">
<defs>
<radialGradient id="bg" cx="50%" cy="36%" r="85%">
<stop offset="0%" stop-color="#222a34"/><stop offset="55%" stop-color="#141922"/><stop offset="100%" stop-color="#0a0b0d"/></radialGradient>
<linearGradient id="sb" x1="0" y1="0" x2="0" y2="1">
<stop offset="0%" stop-color="#EAF2F7"/><stop offset="100%" stop-color="#93a2af"/></linearGradient>
<linearGradient id="acc" x1="0" y1="0" x2="0" y2="1">
<stop offset="0%" stop-color="#bfe9f5"/><stop offset="100%" stop-color="#74acc0"/></linearGradient>
<filter id="glow" x="-60%" y="-60%" width="220%" height="220%">
<feGaussianBlur stdDeviation="4" result="b"/><feMerge><feMergeNode in="b"/><feMergeNode in="SourceGraphic"/></feMerge></filter>
<filter id="soft" x="-70%" y="-70%" width="240%" height="240%"><feGaussianBlur stdDeviation="22"/></filter>
</defs>
<rect width="600" height="600" fill="url(#bg)"/>
<g opacity="0.6"><circle cx="24" cy="24" r="1" fill="#2c3744"/><circle cx="24" cy="62" r="1" fill="#2c3744"/><circle cx="24" cy="100" r="1" fill="#2c3744"/><circle cx="24" cy="138" r="1" fill="#2c3744"/><circle cx="24" cy="176" r="1" fill="#2c3744"/><circle cx="24" cy="214" r="1" fill="#2c3744"/><circle cx="24" cy="252" r="1" fill="#2c3744"/><circle cx="24" cy="290" r="1" fill="#2c3744"/><circle cx="24" cy="328" r="1" fill="#2c3744"/><circle cx="24" cy="366" r="1" fill="#2c3744"/><circle cx="24" cy="404" r="1" fill="#2c3744"/><circle cx="24" cy="442" r="1" fill="#2c3744"/><circle cx="24" cy="480" r="1" fill="#2c3744"/><circle cx="24" cy="518" r="1" fill="#2c3744"/><circle cx="24" cy="556" r="1" fill="#2c3744"/><circle cx="24" cy="594" r="1" fill="#2c3744"/><circle cx="62" cy="24" r="1" fill="#2c3744"/><circle cx="62" cy="62" r="1" fill="#2c3744"/><circle cx="62" cy="100" r="1" fill="#2c3744"/><circle cx="62" cy="138" r="1" fill="#2c3744"/><circle cx="62" cy="176" r="1" fill="#2c3744"/><circle cx="62" cy="214" r="1" fill="#2c3744"/><circle cx="62" cy="252" r="1" fill="#2c3744"/><circle cx="62" cy="290" r="1" fill="#2c3744"/><circle cx="62" cy="328" r="1" fill="#2c3744"/><circle cx="62" cy="366" r="1" fill="#2c3744"/><circle cx="62" cy="404" r="1" fill="#2c3744"/><circle cx="62" cy="442" r="1" fill="#2c3744"/><circle cx="62" cy="480" r="1" fill="#2c3744"/><circle cx="62" cy="518" r="1" fill="#2c3744"/><circle cx="62" cy="556" r="1" fill="#2c3744"/><circle cx="62" cy="594" r="1" fill="#2c3744"/><circle cx="100" cy="24" r="1" fill="#2c3744"/><circle cx="100" cy="62" r="1" fill="#2c3744"/><circle cx="100" cy="100" r="1" fill="#2c3744"/><circle cx="100" cy="138" r="1" fill="#2c3744"/><circle cx="100" cy="176" r="1" fill="#2c3744"/><circle cx="100" cy="214" r="1" fill="#2c3744"/><circle cx="100" cy="252" r="1" fill="#2c3744"/><circle cx="100" cy="290" r="1" fill="#2c3744"/><circle cx="100" cy="328" r="1" fill="#2c3744"/><circle cx="100" cy="366" r="1" fill="#2c3744"/><circle cx="100" cy="404" r="1" fill="#2c3744"/><circle cx="100" cy="442" r="1" fill="#2c3744"/><circle cx="100" cy="480" r="1" fill="#2c3744"/><circle cx="100" cy="518" r="1" fill="#2c3744"/><circle cx="100" cy="556" r="1" fill="#2c3744"/><circle cx="100" cy="594" r="1" fill="#2c3744"/><circle cx="138" cy="24" r="1" fill="#2c3744"/><circle cx="138" cy="62" r="1" fill="#2c3744"/><circle cx="138" cy="100" r="1" fill="#2c3744"/><circle cx="138" cy="138" r="1" fill="#2c3744"/><circle cx="138" cy="176" r="1" fill="#2c3744"/><circle cx="138" cy="214" r="1" fill="#2c3744"/><circle cx="138" cy="252" r="1" fill="#2c3744"/><circle cx="138" cy="290" r="1" fill="#2c3744"/><circle cx="138" cy="328" r="1" fill="#2c3744"/><circle cx="138" cy="366" r="1" fill="#2c3744"/><circle cx="138" cy="404" r="1" fill="#2c3744"/><circle cx="138" cy="442" r="1" fill="#2c3744"/><circle cx="138" cy="480" r="1" fill="#2c3744"/><circle cx="138" cy="518" r="1" fill="#2c3744"/><circle cx="138" cy="556" r="1" fill="#2c3744"/><circle cx="138" cy="594" r="1" fill="#2c3744"/><circle cx="176" cy="24" r="1" fill="#2c3744"/><circle cx="176" cy="62" r="1" fill="#2c3744"/><circle cx="176" cy="100" r="1" fill="#2c3744"/><circle cx="176" cy="138" r="1" fill="#2c3744"/><circle cx="176" cy="176" r="1" fill="#2c3744"/><circle cx="176" cy="214" r="1" fill="#2c3744"/><circle cx="176" cy="252" r="1" fill="#2c3744"/><circle cx="176" cy="290" r="1" fill="#2c3744"/><circle cx="176" cy="328" r="1" fill="#2c3744"/><circle cx="176" cy="366" r="1" fill="#2c3744"/><circle cx="176" cy="404" r="1" fill="#2c3744"/><circle cx="176" cy="442" r="1" fill="#2c3744"/><circle cx="176" cy="480" r="1" fill="#2c3744"/><circle cx="176" cy="518" r="1" fill="#2c3744"/><circle cx="176" cy="556" r="1" fill="#2c3744"/><circle cx="176" cy="594" r="1" fill="#2c3744"/><circle cx="214" cy="24" r="1" fill="#2c3744"/><circle cx="214" cy="62" r="1" fill="#2c3744"/><circle cx="214" cy="100" r="1" fill="#2c3744"/><circle cx="214" cy="138" r="1" fill="#2c3744"/><circle cx="214" cy="176" r="1" fill="#2c3744"/><circle cx="214" cy="214" r="1" fill="#2c3744"/><circle cx="214" cy="252" r="1" fill="#2c3744"/><circle cx="214" cy="290" r="1" fill="#2c3744"/><circle cx="214" cy="328" r="1" fill="#2c3744"/><circle cx="214" cy="366" r="1" fill="#2c3744"/><circle cx="214" cy="404" r="1" fill="#2c3744"/><circle cx="214" cy="442" r="1" fill="#2c3744"/><circle cx="214" cy="480" r="1" fill="#2c3744"/><circle cx="214" cy="518" r="1" fill="#2c3744"/><circle cx="214" cy="556" r="1" fill="#2c3744"/><circle cx="214" cy="594" r="1" fill="#2c3744"/><circle cx="252" cy="24" r="1" fill="#2c3744"/><circle cx="252" cy="62" r="1" fill="#2c3744"/><circle cx="252" cy="100" r="1" fill="#2c3744"/><circle cx="252" cy="138" r="1" fill="#2c3744"/><circle cx="252" cy="176" r="1" fill="#2c3744"/><circle cx="252" cy="214" r="1" fill="#2c3744"/><circle cx="252" cy="252" r="1" fill="#2c3744"/><circle cx="252" cy="290" r="1" fill="#2c3744"/><circle cx="252" cy="328" r="1" fill="#2c3744"/><circle cx="252" cy="366" r="1" fill="#2c3744"/><circle cx="252" cy="404" r="1" fill="#2c3744"/><circle cx="252" cy="442" r="1" fill="#2c3744"/><circle cx="252" cy="480" r="1" fill="#2c3744"/><circle cx="252" cy="518" r="1" fill="#2c3744"/><circle cx="252" cy="556" r="1" fill="#2c3744"/><circle cx="252" cy="594" r="1" fill="#2c3744"/><circle cx="290" cy="24" r="1" fill="#2c3744"/><circle cx="290" cy="62" r="1" fill="#2c3744"/><circle cx="290" cy="100" r="1" fill="#2c3744"/><circle cx="290" cy="138" r="1" fill="#2c3744"/><circle cx="290" cy="176" r="1" fill="#2c3744"/><circle cx="290" cy="214" r="1" fill="#2c3744"/><circle cx="290" cy="252" r="1" fill="#2c3744"/><circle cx="290" cy="290" r="1" fill="#2c3744"/><circle cx="290" cy="328" r="1" fill="#2c3744"/><circle cx="290" cy="366" r="1" fill="#2c3744"/><circle cx="290" cy="404" r="1" fill="#2c3744"/><circle cx="290" cy="442" r="1" fill="#2c3744"/><circle cx="290" cy="480" r="1" fill="#2c3744"/><circle cx="290" cy="518" r="1" fill="#2c3744"/><circle cx="290" cy="556" r="1" fill="#2c3744"/><circle cx="290" cy="594" r="1" fill="#2c3744"/><circle cx="328" cy="24" r="1" fill="#2c3744"/><circle cx="328" cy="62" r="1" fill="#2c3744"/><circle cx="328" cy="100" r="1" fill="#2c3744"/><circle cx="328" cy="138" r="1" fill="#2c3744"/><circle cx="328" cy="176" r="1" fill="#2c3744"/><circle cx="328" cy="214" r="1" fill="#2c3744"/><circle cx="328" cy="252" r="1" fill="#2c3744"/><circle cx="328" cy="290" r="1" fill="#2c3744"/><circle cx="328" cy="328" r="1" fill="#2c3744"/><circle cx="328" cy="366" r="1" fill="#2c3744"/><circle cx="328" cy="404" r="1" fill="#2c3744"/><circle cx="328" cy="442" r="1" fill="#2c3744"/><circle cx="328" cy="480" r="1" fill="#2c3744"/><circle cx="328" cy="518" r="1" fill="#2c3744"/><circle cx="328" cy="556" r="1" fill="#2c3744"/><circle cx="328" cy="594" r="1" fill="#2c3744"/><circle cx="366" cy="24" r="1" fill="#2c3744"/><circle cx="366" cy="62" r="1" fill="#2c3744"/><circle cx="366" cy="100" r="1" fill="#2c3744"/><circle cx="366" cy="138" r="1" fill="#2c3744"/><circle cx="366" cy="176" r="1" fill="#2c3744"/><circle cx="366" cy="214" r="1" fill="#2c3744"/><circle cx="366" cy="252" r="1" fill="#2c3744"/><circle cx="366" cy="290" r="1" fill="#2c3744"/><circle cx="366" cy="328" r="1" fill="#2c3744"/><circle cx="366" cy="366" r="1" fill="#2c3744"/><circle cx="366" cy="404" r="1" fill="#2c3744"/><circle cx="366" cy="442" r="1" fill="#2c3744"/><circle cx="366" cy="480" r="1" fill="#2c3744"/><circle cx="366" cy="518" r="1" fill="#2c3744"/><circle cx="366" cy="556" r="1" fill="#2c3744"/><circle cx="366" cy="594" r="1" fill="#2c3744"/><circle cx="404" cy="24" r="1" fill="#2c3744"/><circle cx="404" cy="62" r="1" fill="#2c3744"/><circle cx="404" cy="100" r="1" fill="#2c3744"/><circle cx="404" cy="138" r="1" fill="#2c3744"/><circle cx="404" cy="176" r="1" fill="#2c3744"/><circle cx="404" cy="214" r="1" fill="#2c3744"/><circle cx="404" cy="252" r="1" fill="#2c3744"/><circle cx="404" cy="290" r="1" fill="#2c3744"/><circle cx="404" cy="328" r="1" fill="#2c3744"/><circle cx="404" cy="366" r="1" fill="#2c3744"/><circle cx="404" cy="404" r="1" fill="#2c3744"/><circle cx="404" cy="442" r="1" fill="#2c3744"/><circle cx="404" cy="480" r="1" fill="#2c3744"/><circle cx="404" cy="518" r="1" fill="#2c3744"/><circle cx="404" cy="556" r="1" fill="#2c3744"/><circle cx="404" cy="594" r="1" fill="#2c3744"/><circle cx="442" cy="24" r="1" fill="#2c3744"/><circle cx="442" cy="62" r="1" fill="#2c3744"/><circle cx="442" cy="100" r="1" fill="#2c3744"/><circle cx="442" cy="138" r="1" fill="#2c3744"/><circle cx="442" cy="176" r="1" fill="#2c3744"/><circle cx="442" cy="214" r="1" fill="#2c3744"/><circle cx="442" cy="252" r="1" fill="#2c3744"/><circle cx="442" cy="290" r="1" fill="#2c3744"/><circle cx="442" cy="328" r="1" fill="#2c3744"/><circle cx="442" cy="366" r="1" fill="#2c3744"/><circle cx="442" cy="404" r="1" fill="#2c3744"/><circle cx="442" cy="442" r="1" fill="#2c3744"/><circle cx="442" cy="480" r="1" fill="#2c3744"/><circle cx="442" cy="518" r="1" fill="#2c3744"/><circle cx="442" cy="556" r="1" fill="#2c3744"/><circle cx="442" cy="594" r="1" fill="#2c3744"/><circle cx="480" cy="24" r="1" fill="#2c3744"/><circle cx="480" cy="62" r="1" fill="#2c3744"/><circle cx="480" cy="100" r="1" fill="#2c3744"/><circle cx="480" cy="138" r="1" fill="#2c3744"/><circle cx="480" cy="176" r="1" fill="#2c3744"/><circle cx="480" cy="214" r="1" fill="#2c3744"/><circle cx="480" cy="252" r="1" fill="#2c3744"/><circle cx="480" cy="290" r="1" fill="#2c3744"/><circle cx="480" cy="328" r="1" fill="#2c3744"/><circle cx="480" cy="366" r="1" fill="#2c3744"/><circle cx="480" cy="404" r="1" fill="#2c3744"/><circle cx="480" cy="442" r="1" fill="#2c3744"/><circle cx="480" cy="480" r="1" fill="#2c3744"/><circle cx="480" cy="518" r="1" fill="#2c3744"/><circle cx="480" cy="556" r="1" fill="#2c3744"/><circle cx="480" cy="594" r="1" fill="#2c3744"/><circle cx="518" cy="24" r="1" fill="#2c3744"/><circle cx="518" cy="62" r="1" fill="#2c3744"/><circle cx="518" cy="100" r="1" fill="#2c3744"/><circle cx="518" cy="138" r="1" fill="#2c3744"/><circle cx="518" cy="176" r="1" fill="#2c3744"/><circle cx="518" cy="214" r="1" fill="#2c3744"/><circle cx="518" cy="252" r="1" fill="#2c3744"/><circle cx="518" cy="290" r="1" fill="#2c3744"/><circle cx="518" cy="328" r="1" fill="#2c3744"/><circle cx="518" cy="366" r="1" fill="#2c3744"/><circle cx="518" cy="404" r="1" fill="#2c3744"/><circle cx="518" cy="442" r="1" fill="#2c3744"/><circle cx="518" cy="480" r="1" fill="#2c3744"/><circle cx="518" cy="518" r="1" fill="#2c3744"/><circle cx="518" cy="556" r="1" fill="#2c3744"/><circle cx="518" cy="594" r="1" fill="#2c3744"/><circle cx="556" cy="24" r="1" fill="#2c3744"/><circle cx="556" cy="62" r="1" fill="#2c3744"/><circle cx="556" cy="100" r="1" fill="#2c3744"/><circle cx="556" cy="138" r="1" fill="#2c3744"/><circle cx="556" cy="176" r="1" fill="#2c3744"/><circle cx="556" cy="214" r="1" fill="#2c3744"/><circle cx="556" cy="252" r="1" fill="#2c3744"/><circle cx="556" cy="290" r="1" fill="#2c3744"/><circle cx="556" cy="328" r="1" fill="#2c3744"/><circle cx="556" cy="366" r="1" fill="#2c3744"/><circle cx="556" cy="404" r="1" fill="#2c3744"/><circle cx="556" cy="442" r="1" fill="#2c3744"/><circle cx="556" cy="480" r="1" fill="#2c3744"/><circle cx="556" cy="518" r="1" fill="#2c3744"/><circle cx="556" cy="556" r="1" fill="#2c3744"/><circle cx="556" cy="594" r="1" fill="#2c3744"/><circle cx="594" cy="24" r="1" fill="#2c3744"/><circle cx="594" cy="62" r="1" fill="#2c3744"/><circle cx="594" cy="100" r="1" fill="#2c3744"/><circle cx="594" cy="138" r="1" fill="#2c3744"/><circle cx="594" cy="176" r="1" fill="#2c3744"/><circle cx="594" cy="214" r="1" fill="#2c3744"/><circle cx="594" cy="252" r="1" fill="#2c3744"/><circle cx="594" cy="290" r="1" fill="#2c3744"/><circle cx="594" cy="328" r="1" fill="#2c3744"/><circle cx="594" cy="366" r="1" fill="#2c3744"/><circle cx="594" cy="404" r="1" fill="#2c3744"/><circle cx="594" cy="442" r="1" fill="#2c3744"/><circle cx="594" cy="480" r="1" fill="#2c3744"/><circle cx="594" cy="518" r="1" fill="#2c3744"/><circle cx="594" cy="556" r="1" fill="#2c3744"/><circle cx="594" cy="594" r="1" fill="#2c3744"/></g><circle cx="250" cy="300" r="150" fill="#4f8aa3" opacity="0.22" filter="url(#soft)"/><line x1="110" y1="160" x2="215" y2="120" stroke="#aeb9c4" stroke-width="0.9" opacity="0.45"/><line x1="110" y1="160" x2="215" y2="210" stroke="#aeb9c4" stroke-width="0.9" opacity="0.45"/><line x1="110" y1="160" x2="215" y2="300" stroke="#aeb9c4" stroke-width="0.9" opacity="0.45"/><line x1="110" y1="160" x2="215" y2="390" stroke="#aeb9c4" stroke-width="0.9" opacity="0.45"/><line x1="110" y1="160" x2="215" y2="460" stroke="#aeb9c4" stroke-width="0.9" opacity="0.45"/><line x1="110" y1="250" x2="215" y2="120" stroke="#aeb9c4" stroke-width="0.9" opacity="0.45"/><line x1="110" y1="250" x2="215" y2="210" stroke="#aeb9c4" stroke-width="0.9" opacity="0.45"/><line x1="110" y1="250" x2="215" y2="300" stroke="#aeb9c4" stroke-width="0.9" opacity="0.45"/><line x1="110" y1="250" x2="215" y2="390" stroke="#aeb9c4" stroke-width="0.9" opacity="0.45"/><line x1="110" y1="250" x2="215" y2="460" stroke="#aeb9c4" stroke-width="0.9" opacity="0.45"/><line x1="110" y1="340" x2="215" y2="120" stroke="#aeb9c4" stroke-width="0.9" opacity="0.45"/><line x1="110" y1="340" x2="215" y2="210" stroke="#aeb9c4" stroke-width="0.9" opacity="0.45"/><line x1="110" y1="340" x2="215" y2="300" stroke="#aeb9c4" stroke-width="0.9" opacity="0.45"/><line x1="110" y1="340" x2="215" y2="390" stroke="#aeb9c4" stroke-width="0.9" opacity="0.45"/><line x1="110" y1="340" x2="215" y2="460" stroke="#aeb9c4" stroke-width="0.9" opacity="0.45"/><line x1="110" y1="430" x2="215" y2="120" stroke="#aeb9c4" stroke-width="0.9" opacity="0.45"/><line x1="110" y1="430" x2="215" y2="210" stroke="#aeb9c4" stroke-width="0.9" opacity="0.45"/><line x1="110" y1="430" x2="215" y2="300" stroke="#aeb9c4" stroke-width="0.9" opacity="0.45"/><line x1="110" y1="430" x2="215" y2="390" stroke="#aeb9c4" stroke-width="0.9" opacity="0.45"/><line x1="110" y1="430" x2="215" y2="460" stroke="#aeb9c4" stroke-width="0.9" opacity="0.45"/><line x1="215" y1="120" x2="320" y2="200" stroke="#aeb9c4" stroke-width="0.9" opacity="0.45"/><line x1="215" y1="120" x2="320" y2="300" stroke="#aeb9c4" stroke-width="0.9" opacity="0.45"/><line x1="215" y1="120" x2="320" y2="400" stroke="#aeb9c4" stroke-width="0.9" opacity="0.45"/><line x1="215" y1="210" x2="320" y2="200" stroke="#aeb9c4" stroke-width="0.9" opacity="0.45"/><line x1="215" y1="210" x2="320" y2="300" stroke="#aeb9c4" stroke-width="0.9" opacity="0.45"/><line x1="215" y1="210" x2="320" y2="400" stroke="#aeb9c4" stroke-width="0.9" opacity="0.45"/><line x1="215" y1="300" x2="320" y2="200" stroke="#aeb9c4" stroke-width="0.9" opacity="0.45"/><line x1="215" y1="300" x2="320" y2="300" stroke="#aeb9c4" stroke-width="0.9" opacity="0.45"/><line x1="215" y1="300" x2="320" y2="400" stroke="#aeb9c4" stroke-width="0.9" opacity="0.45"/><line x1="215" y1="390" x2="320" y2="200" stroke="#aeb9c4" stroke-width="0.9" opacity="0.45"/><line x1="215" y1="390" x2="320" y2="300" stroke="#aeb9c4" stroke-width="0.9" opacity="0.45"/><line x1="215" y1="390" x2="320" y2="400" stroke="#aeb9c4" stroke-width="0.9" opacity="0.45"/><line x1="215" y1="460" x2="320" y2="200" stroke="#aeb9c4" stroke-width="0.9" opacity="0.45"/><line x1="215" y1="460" x2="320" y2="300" stroke="#aeb9c4" stroke-width="0.9" opacity="0.45"/><line x1="215" y1="460" x2="320" y2="400" stroke="#aeb9c4" stroke-width="0.9" opacity="0.45"/><circle cx="110" cy="160" r="9.5" fill="#10151b" stroke="url(#sb)" stroke-width="2.4"/><circle cx="110" cy="160" r="3" fill="#cfe0ea"/><circle cx="110" cy="250" r="9.5" fill="#10151b" stroke="url(#sb)" stroke-width="2.4"/><circle cx="110" cy="250" r="3" fill="#cfe0ea"/><circle cx="110" cy="340" r="9.5" fill="#10151b" stroke="url(#sb)" stroke-width="2.4"/><circle cx="110" cy="340" r="3" fill="#cfe0ea"/><circle cx="110" cy="430" r="9.5" fill="#10151b" stroke="url(#sb)" stroke-width="2.4"/><circle cx="110" cy="430" r="3" fill="#cfe0ea"/><circle cx="215" cy="120" r="9.5" fill="#10151b" stroke="url(#sb)" stroke-width="2.4"/><circle cx="215" cy="120" r="3" fill="#cfe0ea"/><circle cx="215" cy="210" r="9.5" fill="#10151b" stroke="url(#sb)" stroke-width="2.4"/><circle cx="215" cy="210" r="3" fill="#cfe0ea"/><circle cx="215" cy="300" r="9.5" fill="#10151b" stroke="url(#sb)" stroke-width="2.4"/><circle cx="215" cy="300" r="3" fill="#cfe0ea"/><circle cx="215" cy="390" r="9.5" fill="#10151b" stroke="url(#sb)" stroke-width="2.4"/><circle cx="215" cy="390" r="3" fill="#cfe0ea"/><circle cx="215" cy="460" r="9.5" fill="#10151b" stroke="url(#sb)" stroke-width="2.4"/><circle cx="215" cy="460" r="3" fill="#cfe0ea"/><circle cx="320" cy="200" r="9.5" fill="#10151b" stroke="url(#sb)" stroke-width="2.4"/><circle cx="320" cy="200" r="3" fill="#cfe0ea"/><circle cx="320" cy="300" r="9.5" fill="#10151b" stroke="url(#sb)" stroke-width="2.4"/><circle cx="320" cy="300" r="3" fill="#cfe0ea"/><circle cx="320" cy="400" r="9.5" fill="#10151b" stroke="url(#sb)" stroke-width="2.4"/><circle cx="320" cy="400" r="3" fill="#cfe0ea"/><path d="M340 300 H405" stroke="url(#acc)" stroke-width="3"/><path d="M405 300 l-13 -8 v16 z" fill="#bfe9f5"/><path d="M442 390 l58 -29 l58 29 l-58 29 z" fill="#16202a" stroke="url(#sb)" stroke-width="2.3" opacity="0.95"/><path d="M442 366 l58 -29 l58 29 l-58 29 z" fill="#16202a" stroke="url(#sb)" stroke-width="2.3" opacity="0.95"/><path d="M442 342 l58 -29 l58 29 l-58 29 z" fill="#16202a" stroke="url(#sb)" stroke-width="2.3" opacity="0.95"/><path d="M442 318 l58 -29 l58 29 l-58 29 z" fill="#16202a" stroke="url(#acc)" stroke-width="2.3" opacity="0.95"/><path d="M442 294 l58 -29 l58 29 l-58 29 z" fill="none" stroke="url(#sb)" stroke-width="2.3" opacity="0.5"/><path d="M442 270 l58 -29 l58 29 l-58 29 z" fill="none" stroke="url(#sb)" stroke-width="2.3" opacity="0.5"/><path d="M442 246 l58 -29 l58 29 l-58 29 z" fill="none" stroke="url(#sb)" stroke-width="2.3" opacity="0.5"/><line x1="500" y1="120" x2="500" y2="265" stroke="#bfe9f5" stroke-width="1.5" opacity="0.7"/><circle cx="500" cy="265" r="4.5" fill="#bfe9f5" filter="url(#glow)"/></svg>