<svg viewBox="0 0 400 400" xmlns="http://www.w3.org/2000/svg"><defs>
<linearGradient id="sb" x1="0" y1="0" x2="0" y2="1">
<stop offset="0%" stop-color="#EAF2F7"/><stop offset="100%" stop-color="#93a2af"/></linearGradient>
<linearGradient id="acc" x1="0" y1="0" x2="0" y2="1">
<stop offset="0%" stop-color="#bfe9f5"/><stop offset="100%" stop-color="#74acc0"/></linearGradient>
<filter id="glow" x="-80%" y="-80%" width="260%" height="260%">
<feGaussianBlur stdDeviation="5" result="b"/><feMerge><feMergeNode in="b"/><feMergeNode in="SourceGraphic"/></feMerge></filter>
<filter id="soft" x="-100%" y="-100%" width="300%" height="300%"><feGaussianBlur stdDeviation="20"/></filter>
</defs>
<g filter="url(#glow)"><circle cx="200" cy="205" r="125" fill="#4f8aa3" opacity="0.28" filter="url(#soft)"/><polygon points="200.0,164.0 262.0,198.0 200.0,198.0" fill="#3a7bd5" opacity="0.88"/><polygon points="262.0,198.0 200.0,232.0 200.0,198.0" fill="#3ad5c4" opacity="0.88"/><polygon points="200.0,232.0 138.0,198.0 200.0,198.0" fill="#f4e04d" opacity="0.88"/><polygon points="138.0,198.0 200.0,164.0 200.0,198.0" fill="#f5a02a" opacity="0.88"/><polygon points="262.0,198.0 262.0,226.7 200.0,260.7 200.0,232.0" fill="#f2432b" opacity="0.8"/><polygon points="262.0,226.7 262.0,255.3 200.0,289.3 200.0,260.7" fill="#f4e04d" opacity="0.8"/><polygon points="262.0,255.3 262.0,284.0 200.0,318.0 200.0,289.3" fill="#3a7bd5" opacity="0.8"/><polygon points="200.0,164.0 200.0,192.7 262.0,226.7 262.0,198.0" fill="#f2432b" opacity="0.65"/><polygon points="200.0,192.7 200.0,221.3 262.0,255.3 262.0,226.7" fill="#f4e04d" opacity="0.65"/><polygon points="200.0,221.3 200.0,250.0 262.0,284.0 262.0,255.3" fill="#3a7bd5" opacity="0.65"/><line x1="200.0" y1="164.0" x2="262.0" y2="198.0" stroke="#0c0c0c" stroke-width="1.4" opacity="0.5"/><line x1="262.0" y1="198.0" x2="200.0" y2="232.0" stroke="#0c0c0c" stroke-width="1.4" opacity="0.5"/><line x1="200.0" y1="232.0" x2="138.0" y2="198.0" stroke="#0c0c0c" stroke-width="1.4" opacity="0.5"/><line x1="138.0" y1="198.0" x2="200.0" y2="164.0" stroke="#0c0c0c" stroke-width="1.4" opacity="0.5"/><line x1="200.0" y1="250.0" x2="262.0" y2="284.0" stroke="#0c0c0c" stroke-width="1.4" opacity="0.5"/><line x1="262.0" y1="284.0" x2="200.0" y2="318.0" stroke="#0c0c0c" stroke-width="1.4" opacity="0.5"/><line x1="200.0" y1="250.0" x2="200.0" y2="164.0" stroke="#0c0c0c" stroke-width="1.4" opacity="0.5"/><line x1="262.0" y1="284.0" x2="262.0" y2="198.0" stroke="#0c0c0c" stroke-width="1.4" opacity="0.5"/><line x1="200.0" y1="318.0" x2="200.0" y2="232.0" stroke="#0c0c0c" stroke-width="1.4" opacity="0.5"/></g></svg>