<svg viewBox="0 0 400 400" xmlns="http://www.w3.org/2000/svg"><defs>
<linearGradient id="sb" x1="0" y1="0" x2="0" y2="1">
<stop offset="0%" stop-color="#EAF2F7"/><stop offset="100%" stop-color="#93a2af"/></linearGradient>
<linearGradient id="acc" x1="0" y1="0" x2="0" y2="1">
<stop offset="0%" stop-color="#bfe9f5"/><stop offset="100%" stop-color="#74acc0"/></linearGradient>
<filter id="glow" x="-80%" y="-80%" width="260%" height="260%">
<feGaussianBlur stdDeviation="5" result="b"/><feMerge><feMergeNode in="b"/><feMergeNode in="SourceGraphic"/></feMerge></filter>
<filter id="soft" x="-100%" y="-100%" width="300%" height="300%"><feGaussianBlur stdDeviation="20"/></filter>
</defs>
<circle cx="200" cy="220" r="130" fill="#4f8aa3" opacity="0.28" filter="url(#soft)"/><g filter="url(#glow)"><path d="M128 270 l72 -36 l72 36 l-72 36 z" fill="#16202a" stroke="url(#sb)" stroke-width="2.6" opacity="0.95"/></g><g filter="url(#glow)"><path d="M128 246 l72 -36 l72 36 l-72 36 z" fill="#16202a" stroke="url(#sb)" stroke-width="2.6" opacity="0.95"/></g><g filter="url(#glow)"><path d="M128 222 l72 -36 l72 36 l-72 36 z" fill="#16202a" stroke="url(#acc)" stroke-width="2.6" opacity="0.95"/></g><g filter="url(#glow)"><path d="M128 198 l72 -36 l72 36 l-72 36 z" fill="none" stroke="url(#sb)" stroke-width="2.6" opacity="0.45"/></g><g filter="url(#glow)"><path d="M128 174 l72 -36 l72 36 l-72 36 z" fill="none" stroke="url(#sb)" stroke-width="2.6" opacity="0.45"/></g><g filter="url(#glow)"><line x1="300" y1="70" x2="200" y2="222" stroke="#bfe9f5" stroke-width="3" opacity="0.85"/><circle cx="300" cy="70" r="7" fill="#EAF2F7"/><circle cx="200" cy="222" r="9" fill="#bfe9f5"/></g><line x1="211.3" y1="224.1" x2="220.7" y2="225.8" stroke="#EAF2F7" stroke-width="1.6" opacity="0.55"/><line x1="204.1" y1="227.6" x2="207.5" y2="232.3" stroke="#EAF2F7" stroke-width="1.6" opacity="0.55"/><line x1="194.0" y1="227.2" x2="189.0" y2="231.5" stroke="#EAF2F7" stroke-width="1.6" opacity="0.55"/><line x1="188.7" y1="219.9" x2="179.3" y2="218.2" stroke="#EAF2F7" stroke-width="1.6" opacity="0.55"/><line x1="197.9" y1="216.1" x2="196.2" y2="211.2" stroke="#EAF2F7" stroke-width="1.6" opacity="0.55"/></svg>