<svg viewBox="0 0 400 400" xmlns="http://www.w3.org/2000/svg"><defs>
<linearGradient id="sb" x1="0" y1="0" x2="0" y2="1">
<stop offset="0%" stop-color="#EAF2F7"/><stop offset="100%" stop-color="#93a2af"/></linearGradient>
<linearGradient id="acc" x1="0" y1="0" x2="0" y2="1">
<stop offset="0%" stop-color="#bfe9f5"/><stop offset="100%" stop-color="#74acc0"/></linearGradient>
<filter id="glow" x="-80%" y="-80%" width="260%" height="260%">
<feGaussianBlur stdDeviation="5" result="b"/><feMerge><feMergeNode in="b"/><feMergeNode in="SourceGraphic"/></feMerge></filter>
<filter id="soft" x="-100%" y="-100%" width="300%" height="300%"><feGaussianBlur stdDeviation="20"/></filter>
</defs>
<circle cx="200" cy="205" r="120" fill="#4f8aa3" opacity="0.28" filter="url(#soft)"/><polygon points="200.0,134.0 304.0,186.0 200.0,238.0 96.0,186.0" fill="#9fb6c4" opacity="0.08"/><line x1="200.0" y1="134.0" x2="252.0" y2="160.0" stroke="url(#sb)" stroke-width="2.0" opacity="0.55"/><line x1="200.0" y1="134.0" x2="148.0" y2="160.0" stroke="url(#sb)" stroke-width="2.0" opacity="0.55"/><line x1="200.0" y1="192.0" x2="252.0" y2="218.0" stroke="url(#sb)" stroke-width="2.8" opacity="0.73"/><line x1="200.0" y1="192.0" x2="148.0" y2="218.0" stroke="url(#sb)" stroke-width="2.8" opacity="0.73"/><line x1="200.0" y1="192.0" x2="200.0" y2="134.0" stroke="url(#sb)" stroke-width="2.4" opacity="0.64"/><line x1="148.0" y1="160.0" x2="200.0" y2="186.0" stroke="url(#sb)" stroke-width="2.0" opacity="0.55"/><line x1="148.0" y1="160.0" x2="96.0" y2="186.0" stroke="url(#sb)" stroke-width="2.0" opacity="0.55"/><line x1="252.0" y1="160.0" x2="304.0" y2="186.0" stroke="url(#sb)" stroke-width="2.0" opacity="0.55"/><line x1="252.0" y1="160.0" x2="200.0" y2="186.0" stroke="url(#sb)" stroke-width="2.0" opacity="0.55"/><line x1="200.0" y1="250.0" x2="252.0" y2="276.0" stroke="url(#sb)" stroke-width="3.6" opacity="0.9"/><line x1="200.0" y1="250.0" x2="148.0" y2="276.0" stroke="url(#sb)" stroke-width="3.6" opacity="0.9"/><line x1="200.0" y1="250.0" x2="200.0" y2="192.0" stroke="url(#sb)" stroke-width="3.2" opacity="0.81"/><line x1="148.0" y1="218.0" x2="200.0" y2="244.0" stroke="url(#sb)" stroke-width="2.8" opacity="0.73"/><line x1="148.0" y1="218.0" x2="96.0" y2="244.0" stroke="url(#sb)" stroke-width="2.8" opacity="0.73"/><line x1="148.0" y1="218.0" x2="148.0" y2="160.0" stroke="url(#sb)" stroke-width="2.4" opacity="0.64"/><line x1="96.0" y1="186.0" x2="148.0" y2="212.0" stroke="url(#sb)" stroke-width="2.0" opacity="0.55"/><line x1="252.0" y1="218.0" x2="304.0" y2="244.0" stroke="url(#sb)" stroke-width="2.8" opacity="0.73"/><line x1="252.0" y1="218.0" x2="200.0" y2="244.0" stroke="url(#sb)" stroke-width="2.8" opacity="0.73"/><line x1="252.0" y1="218.0" x2="252.0" y2="160.0" stroke="url(#sb)" stroke-width="2.4" opacity="0.64"/><line x1="200.0" y1="186.0" x2="252.0" y2="212.0" stroke="url(#sb)" stroke-width="2.0" opacity="0.55"/><line x1="200.0" y1="186.0" x2="148.0" y2="212.0" stroke="url(#sb)" stroke-width="2.0" opacity="0.55"/><line x1="304.0" y1="186.0" x2="252.0" y2="212.0" stroke="url(#sb)" stroke-width="2.0" opacity="0.55"/><line x1="148.0" y1="276.0" x2="200.0" y2="302.0" stroke="url(#sb)" stroke-width="3.6" opacity="0.9"/><line x1="148.0" y1="276.0" x2="96.0" y2="302.0" stroke="url(#sb)" stroke-width="3.6" opacity="0.9"/><line x1="148.0" y1="276.0" x2="148.0" y2="218.0" stroke="url(#sb)" stroke-width="3.2" opacity="0.81"/><line x1="96.0" y1="244.0" x2="148.0" y2="270.0" stroke="url(#sb)" stroke-width="2.8" opacity="0.73"/><line x1="96.0" y1="244.0" x2="96.0" y2="186.0" stroke="url(#sb)" stroke-width="2.4" opacity="0.64"/><line x1="252.0" y1="276.0" x2="304.0" y2="302.0" stroke="url(#sb)" stroke-width="3.6" opacity="0.9"/><line x1="252.0" y1="276.0" x2="200.0" y2="302.0" stroke="url(#sb)" stroke-width="3.6" opacity="0.9"/><line x1="252.0" y1="276.0" x2="252.0" y2="218.0" stroke="url(#sb)" stroke-width="3.2" opacity="0.81"/><line x1="200.0" y1="244.0" x2="252.0" y2="270.0" stroke="url(#sb)" stroke-width="2.8" opacity="0.73"/><line x1="200.0" y1="244.0" x2="148.0" y2="270.0" stroke="url(#sb)" stroke-width="2.8" opacity="0.73"/><line x1="200.0" y1="244.0" x2="200.0" y2="186.0" stroke="url(#sb)" stroke-width="2.4" opacity="0.64"/><line x1="148.0" y1="212.0" x2="200.0" y2="238.0" stroke="url(#sb)" stroke-width="2.0" opacity="0.55"/><line x1="304.0" y1="244.0" x2="252.0" y2="270.0" stroke="url(#sb)" stroke-width="2.8" opacity="0.73"/><line x1="304.0" y1="244.0" x2="304.0" y2="186.0" stroke="url(#sb)" stroke-width="2.4" opacity="0.64"/><line x1="252.0" y1="212.0" x2="200.0" y2="238.0" stroke="url(#sb)" stroke-width="2.0" opacity="0.55"/><line x1="96.0" y1="302.0" x2="148.0" y2="328.0" stroke="url(#sb)" stroke-width="3.6" opacity="0.9"/><line x1="96.0" y1="302.0" x2="96.0" y2="244.0" stroke="url(#sb)" stroke-width="3.2" opacity="0.81"/><line x1="200.0" y1="302.0" x2="252.0" y2="328.0" stroke="url(#sb)" stroke-width="3.6" opacity="0.9"/><line x1="200.0" y1="302.0" x2="148.0" y2="328.0" stroke="url(#sb)" stroke-width="3.6" opacity="0.9"/><line x1="200.0" y1="302.0" x2="200.0" y2="244.0" stroke="url(#sb)" stroke-width="3.2" opacity="0.81"/><line x1="148.0" y1="270.0" x2="200.0" y2="296.0" stroke="url(#sb)" stroke-width="2.8" opacity="0.73"/><line x1="148.0" y1="270.0" x2="148.0" y2="212.0" stroke="url(#sb)" stroke-width="2.4" opacity="0.64"/><line x1="304.0" y1="302.0" x2="252.0" y2="328.0" stroke="url(#sb)" stroke-width="3.6" opacity="0.9"/><line x1="304.0" y1="302.0" x2="304.0" y2="244.0" stroke="url(#sb)" stroke-width="3.2" opacity="0.81"/><line x1="252.0" y1="270.0" x2="200.0" y2="296.0" stroke="url(#sb)" stroke-width="2.8" opacity="0.73"/><line x1="252.0" y1="270.0" x2="252.0" y2="212.0" stroke="url(#sb)" stroke-width="2.4" opacity="0.64"/><line x1="148.0" y1="328.0" x2="200.0" y2="354.0" stroke="url(#sb)" stroke-width="3.6" opacity="0.9"/><line x1="148.0" y1="328.0" x2="148.0" y2="270.0" stroke="url(#sb)" stroke-width="3.2" opacity="0.81"/><line x1="252.0" y1="328.0" x2="200.0" y2="354.0" stroke="url(#sb)" stroke-width="3.6" opacity="0.9"/><line x1="252.0" y1="328.0" x2="252.0" y2="270.0" stroke="url(#sb)" stroke-width="3.2" opacity="0.81"/><line x1="200.0" y1="296.0" x2="200.0" y2="238.0" stroke="url(#sb)" stroke-width="2.4" opacity="0.64"/><line x1="200.0" y1="354.0" x2="200.0" y2="296.0" stroke="url(#sb)" stroke-width="3.2" opacity="0.81"/><circle cx="200.0" cy="250.0" r="6.8" fill="#EAF2F7" opacity="1.0"/><circle cx="200.0" cy="192.0" r="5.5" fill="#EAF2F7" opacity="0.82"/><circle cx="200.0" cy="134.0" r="4.2" fill="#EAF2F7" opacity="0.65"/><circle cx="148.0" cy="276.0" r="6.8" fill="#EAF2F7" opacity="1.0"/><circle cx="148.0" cy="218.0" r="5.5" fill="#EAF2F7" opacity="0.82"/><circle cx="148.0" cy="160.0" r="4.2" fill="#EAF2F7" opacity="0.65"/><circle cx="96.0" cy="302.0" r="6.8" fill="#EAF2F7" opacity="1.0"/><circle cx="96.0" cy="244.0" r="5.5" fill="#EAF2F7" opacity="0.82"/><circle cx="96.0" cy="186.0" r="4.2" fill="#EAF2F7" opacity="0.65"/><circle cx="252.0" cy="276.0" r="6.8" fill="#EAF2F7" opacity="1.0"/><circle cx="252.0" cy="218.0" r="5.5" fill="#EAF2F7" opacity="0.82"/><circle cx="252.0" cy="160.0" r="4.2" fill="#EAF2F7" opacity="0.65"/><circle cx="200.0" cy="302.0" r="6.8" fill="#EAF2F7" opacity="1.0"/><circle cx="200.0" cy="244.0" r="5.5" fill="#bfe9f5" opacity="0.82"/><circle cx="200.0" cy="186.0" r="4.2" fill="#EAF2F7" opacity="0.65"/><circle cx="148.0" cy="328.0" r="6.8" fill="#EAF2F7" opacity="1.0"/><circle cx="148.0" cy="270.0" r="5.5" fill="#EAF2F7" opacity="0.82"/><circle cx="148.0" cy="212.0" r="4.2" fill="#EAF2F7" opacity="0.65"/><circle cx="304.0" cy="302.0" r="6.8" fill="#EAF2F7" opacity="1.0"/><circle cx="304.0" cy="244.0" r="5.5" fill="#EAF2F7" opacity="0.82"/><circle cx="304.0" cy="186.0" r="4.2" fill="#EAF2F7" opacity="0.65"/><circle cx="252.0" cy="328.0" r="6.8" fill="#EAF2F7" opacity="1.0"/><circle cx="252.0" cy="270.0" r="5.5" fill="#EAF2F7" opacity="0.82"/><circle cx="252.0" cy="212.0" r="4.2" fill="#EAF2F7" opacity="0.65"/><circle cx="200.0" cy="354.0" r="6.8" fill="#EAF2F7" opacity="1.0"/><circle cx="200.0" cy="296.0" r="5.5" fill="#EAF2F7" opacity="0.82"/><circle cx="200.0" cy="238.0" r="4.2" fill="#EAF2F7" opacity="0.65"/></svg>